<svg width="221" height="198" viewBox="0 0 221 198" fill="none" xmlns="http://www.w3.org/2000/svg">
<g id="undraw_mail_sent_re_0ofv" clip-path="url(#clip0_1009_2178)">
<path id="Vector" d="M219.061 75.7192C218.982 75.7193 218.905 75.6951 218.84 75.6499L111.613 1.11913C111.286 0.893379 110.899 0.772731 110.502 0.773407C110.104 0.774083 109.717 0.896049 109.392 1.12291L2.93677 75.6491C2.85257 75.7081 2.74836 75.7312 2.64706 75.7135C2.54576 75.6957 2.45567 75.6385 2.39661 75.5545C2.33755 75.4705 2.31435 75.3664 2.33213 75.2653C2.34991 75.1642 2.40721 75.0743 2.49141 75.0154L108.946 0.489183C109.402 0.171621 109.944 0.000915412 110.5 3.67136e-06C111.056 -0.000908069 111.599 0.168016 112.056 0.484081L219.283 75.0146C219.351 75.0617 219.402 75.1292 219.428 75.2072C219.455 75.2852 219.456 75.3696 219.431 75.4482C219.407 75.5268 219.357 75.5955 219.291 75.6442C219.224 75.693 219.144 75.7192 219.061 75.7192L219.061 75.7192Z" fill="#3F3D56"/>
<path id="Vector_2" d="M9.0199 78.361L110.607 3.21912L212.965 83.7077L115.841 141.172L63.1114 129.176L9.0199 78.361Z" fill="#E6E6E6"/>
<path id="Vector_3" d="M67.5623 176.665H17.3758C17.0676 176.666 16.7624 176.605 16.4776 176.488C16.1928 176.371 15.9339 176.198 15.7159 175.981C15.4978 175.764 15.3249 175.505 15.2068 175.221C15.0888 174.937 15.0281 174.633 15.0281 174.325C15.0281 174.018 15.0888 173.713 15.2068 173.429C15.3249 173.145 15.4978 172.887 15.7159 172.669C15.9339 172.452 16.1928 172.28 16.4776 172.162C16.7624 172.045 17.0676 171.985 17.3758 171.985H67.5623C67.8704 171.985 68.1757 172.045 68.4605 172.162C68.7453 172.28 69.0041 172.452 69.2222 172.669C69.4402 172.887 69.6132 173.145 69.7312 173.429C69.8492 173.713 69.91 174.018 69.91 174.325C69.91 174.633 69.8492 174.937 69.7312 175.221C69.6132 175.505 69.4402 175.764 69.2222 175.981C69.0041 176.198 68.7453 176.371 68.4605 176.488C68.1757 176.605 67.8704 176.666 67.5623 176.665Z" fill="#EF8538"/>
<path id="Vector_4" d="M35.3816 166.604H17.3758C17.0676 166.604 16.7624 166.544 16.4776 166.427C16.1928 166.309 15.9339 166.137 15.7159 165.92C15.4978 165.702 15.3249 165.444 15.2068 165.16C15.0888 164.876 15.0281 164.572 15.0281 164.264C15.0281 163.956 15.0888 163.652 15.2068 163.368C15.3249 163.084 15.4978 162.826 15.7159 162.608C15.9339 162.391 16.1928 162.219 16.4776 162.101C16.7624 161.984 17.0676 161.923 17.3758 161.924H35.3816C35.6897 161.923 35.995 161.984 36.2798 162.101C36.5646 162.219 36.8234 162.391 37.0415 162.608C37.2595 162.826 37.4325 163.084 37.5505 163.368C37.6685 163.652 37.7293 163.956 37.7293 164.264C37.7293 164.572 37.6685 164.876 37.5505 165.16C37.4325 165.444 37.2595 165.702 37.0415 165.92C36.8234 166.137 36.5646 166.309 36.2798 166.427C35.995 166.544 35.6897 166.604 35.3816 166.604Z" fill="#EF8538"/>
<path id="Vector_5" d="M112.035 120.214C111.654 120.215 111.276 120.141 110.923 119.997L48.2711 94.0512V12.8374C48.272 12.1193 48.5582 11.4308 49.067 10.923C49.5758 10.4152 50.2656 10.1295 50.9852 10.1287H171.178C171.898 10.1295 172.588 10.4152 173.096 10.923C173.605 11.4308 173.891 12.1193 173.892 12.8374V94.1079L173.774 94.1581L113.182 119.984C112.819 120.136 112.429 120.214 112.035 120.214Z" fill="white"/>
<path id="Vector_6" d="M112.035 120.408C111.629 120.408 111.226 120.329 110.849 120.176L48.0773 94.1804V12.8374C48.0781 12.068 48.3848 11.3303 48.9299 10.7862C49.4751 10.2421 50.2142 9.93605 50.9852 9.93518H171.178C171.949 9.93605 172.688 10.2421 173.233 10.7862C173.779 11.3303 174.085 12.068 174.086 12.8374V94.2356L113.258 120.162C112.871 120.324 112.455 120.408 112.035 120.408ZM48.8527 93.6635L111.145 119.46C111.726 119.696 112.377 119.692 112.955 119.45L173.311 93.7247V12.8374C173.31 12.2732 173.085 11.7322 172.685 11.3332C172.286 10.9342 171.744 10.7098 171.178 10.7091H50.9852C50.4198 10.7098 49.8778 10.9342 49.478 11.3332C49.0783 11.7322 48.8534 12.2732 48.8527 12.8374L48.8527 93.6635Z" fill="#3F3D56"/>
<path id="Vector_7" d="M218.286 74.9453H218.208L173.698 93.9143L112.799 119.868C112.561 119.968 112.306 120.02 112.048 120.021C111.79 120.023 111.534 119.973 111.295 119.876L48.4649 93.8601L2.86132 74.9763L2.79165 74.9453H2.71404C1.99447 74.9461 1.30461 75.2317 0.795802 75.7396C0.286995 76.2474 0.000798411 76.9359 0 77.6541V195.291C0.000799435 196.009 0.286995 196.698 0.795802 197.206C1.30461 197.714 1.99447 197.999 2.71404 198H218.286C219.006 197.999 219.695 197.714 220.204 197.206C220.713 196.698 220.999 196.009 221 195.291V77.6541C220.999 76.9359 220.713 76.2474 220.204 75.7396C219.695 75.2317 219.006 74.9461 218.286 74.9453ZM220.225 195.291C220.224 195.804 220.02 196.296 219.657 196.659C219.293 197.022 218.8 197.226 218.286 197.226H2.71404C2.19995 197.226 1.70698 197.022 1.34347 196.659C0.979957 196.296 0.775644 195.804 0.775439 195.291V77.6541C0.776142 77.1537 0.970601 76.673 1.31816 76.3124C1.66572 75.9519 2.13947 75.7393 2.64039 75.7192L48.4649 94.696L110.996 120.592C111.673 120.867 112.432 120.862 113.106 120.58L173.698 94.754L218.364 75.7192C218.864 75.7408 219.336 75.9539 219.683 76.3143C220.029 76.6747 220.223 77.1545 220.225 77.6541V195.291Z" fill="#3F3D56"/>
<path id="Vector_8" d="M111.409 97.185C109.096 97.1893 106.845 96.4429 104.994 95.0582L104.879 94.9722L80.7201 76.5111C79.6012 75.6555 78.6622 74.5883 77.9566 73.3705C77.2509 72.1527 76.7926 70.8081 76.6076 69.4135C76.4226 68.0189 76.5147 66.6016 76.8785 65.2425C77.2424 63.8833 77.8709 62.6091 78.7282 61.4924C79.5854 60.3757 80.6547 59.4385 81.8749 58.7342C83.0951 58.03 84.4423 57.5725 85.8396 57.3879C87.237 57.2033 88.6571 57.2952 90.0188 57.6583C91.3806 58.0214 92.6573 58.6487 93.7762 59.5043L109.425 71.48L146.405 23.3468C147.262 22.2304 148.332 21.2935 149.552 20.5897C150.773 19.8858 152.12 19.4288 153.517 19.2447C154.915 19.0606 156.335 19.153 157.697 19.5167C159.058 19.8803 160.335 20.5081 161.453 21.3641L161.223 21.6757L161.459 21.3687C163.715 23.0994 165.192 25.6527 165.564 28.4684C165.937 31.2842 165.175 34.1323 163.446 36.3881L119.948 93.0043C118.942 94.309 117.649 95.3648 116.168 96.0898C114.687 96.8148 113.059 97.1896 111.409 97.185Z" fill="#EF8538"/>
</g>
<defs>
<clipPath id="clip0_1009_2178">
<rect width="221" height="198" fill="white"/>
</clipPath>
</defs>
</svg>
