<svg width="20" height="20" viewBox="0 0 20 20" fill="none" xmlns="http://www.w3.org/2000/svg">
<g id="Frame" clip-path="url(#clip0_841_18)">
<path id="Vector" d="M2.5 4.16675H11.6667" stroke="#808080" stroke-width="1.5" stroke-linecap="round" stroke-linejoin="round"/>
<path id="Vector_2" d="M10 5.83333L11.6667 4.16667L10 2.5" stroke="#808080" stroke-width="1.5" stroke-linecap="round" stroke-linejoin="round"/>
<path id="Vector_3" d="M4.16667 2.5L2.5 4.16667L4.16667 5.83333" stroke="#808080" stroke-width="1.5" stroke-linecap="round" stroke-linejoin="round"/>
<path id="Vector_4" d="M15.8333 8.33325V17.4999" stroke="#808080" stroke-width="1.5" stroke-linecap="round" stroke-linejoin="round"/>
<path id="Vector_5" d="M14.1667 15.8333L15.8333 17.4999L17.5 15.8333" stroke="#808080" stroke-width="1.5" stroke-linecap="round" stroke-linejoin="round"/>
<path id="Vector_6" d="M17.5 9.99992L15.8333 8.33325L14.1667 9.99992" stroke="#808080" stroke-width="1.5" stroke-linecap="round" stroke-linejoin="round"/>
<path id="Vector_7" d="M10 8.33325H4.16667C3.24619 8.33325 2.5 9.07944 2.5 9.99992V15.8333C2.5 16.7537 3.24619 17.4999 4.16667 17.4999H10C10.9205 17.4999 11.6667 16.7537 11.6667 15.8333V9.99992C11.6667 9.07944 10.9205 8.33325 10 8.33325Z" stroke="#808080" stroke-width="1.5" stroke-linecap="round" stroke-linejoin="round"/>
</g>
<defs>
<clipPath id="clip0_841_18">
<rect width="20" height="20" fill="white"/>
</clipPath>
</defs>
</svg>
