<svg width="44" height="44" viewBox="0 0 44 44" fill="none" xmlns="http://www.w3.org/2000/svg">
<g id="Frame" clip-path="url(#clip0_256_2031)">
<path id="Vector" d="M32.6333 36.3311L28.6513 38.4175C28.5332 38.479 28.4002 38.5064 28.2674 38.4968C28.1345 38.4871 28.0069 38.4407 27.8989 38.3627C27.7909 38.2847 27.7067 38.1783 27.6557 38.0552C27.6047 37.9322 27.5888 37.7973 27.61 37.6658L28.3708 33.2456L25.1497 30.1161C25.0535 30.0232 24.9855 29.9051 24.9532 29.7753C24.921 29.6455 24.9259 29.5093 24.9674 29.3822C25.0089 29.255 25.0853 29.1421 25.1878 29.0563C25.2904 28.9705 25.415 28.9153 25.5475 28.897L29.9988 28.2516L31.9898 24.2311C32.0494 24.1114 32.1412 24.0106 32.2548 23.9402C32.3685 23.8698 32.4996 23.8325 32.6333 23.8325C32.7671 23.8325 32.8982 23.8698 33.0118 23.9402C33.1255 24.0106 33.2173 24.1114 33.2768 24.2311L35.2678 28.2516L39.7192 28.897C39.8513 28.916 39.9754 28.9716 40.0775 29.0574C40.1796 29.1433 40.2557 29.256 40.2971 29.3829C40.3385 29.5097 40.3436 29.6456 40.3117 29.7752C40.2799 29.9048 40.2125 30.0229 40.117 30.1161L36.8958 33.2456L37.6548 37.664C37.6776 37.7957 37.663 37.9312 37.6126 38.0551C37.5623 38.179 37.4782 38.2862 37.3699 38.3647C37.2617 38.4432 37.1336 38.4897 37.0002 38.499C36.8668 38.5084 36.7335 38.4801 36.6153 38.4175L32.6333 36.3311V36.3311Z" stroke="#EC6C10" stroke-width="2.75" stroke-linecap="round" stroke-linejoin="round"/>
<path id="Vector_2" d="M11.3667 36.3311L7.38468 38.4175C7.26651 38.479 7.13357 38.5064 7.00071 38.4968C6.86784 38.4871 6.74028 38.4407 6.63226 38.3627C6.52425 38.2847 6.44003 38.1783 6.38901 38.0552C6.33799 37.9322 6.32218 37.7973 6.34335 37.6658L7.10418 33.2456L3.88301 30.1161C3.78687 30.0232 3.71879 29.9051 3.68656 29.7753C3.65432 29.6455 3.65923 29.5093 3.70071 29.3822C3.7422 29.255 3.81859 29.1421 3.92117 29.0563C4.02375 28.9705 4.14838 28.9153 4.28085 28.897L8.73218 28.2516L10.7232 24.2311C10.7827 24.1114 10.8745 24.0106 10.9882 23.9402C11.1019 23.8698 11.2329 23.8325 11.3667 23.8325C11.5004 23.8325 11.6315 23.8698 11.7452 23.9402C11.8589 24.0106 11.9506 24.1114 12.0102 24.2311L14.0012 28.2516L18.4525 28.897C18.5846 28.916 18.7087 28.9716 18.8108 29.0574C18.913 29.1433 18.989 29.256 19.0304 29.3829C19.0718 29.5097 19.0769 29.6456 19.0451 29.7752C19.0132 29.9048 18.9458 30.0229 18.8503 30.1161L15.6292 33.2456L16.3882 37.664C16.411 37.7957 16.3963 37.9312 16.346 38.0551C16.2956 38.179 16.2115 38.2862 16.1033 38.3647C15.995 38.4432 15.8669 38.4897 15.7335 38.499C15.6001 38.5084 15.4668 38.4801 15.3487 38.4175L11.3667 36.3311V36.3311Z" stroke="#EC6C10" stroke-width="2.75" stroke-linecap="round" stroke-linejoin="round"/>
<path id="Vector_3" d="M22 17.9978L18.018 20.0842C17.8998 20.1457 17.7669 20.1731 17.634 20.1634C17.5011 20.1538 17.3736 20.1074 17.2656 20.0294C17.1575 19.9514 17.0733 19.845 17.0223 19.7219C16.9713 19.5988 16.9555 19.464 16.9766 19.3325L17.7375 14.9123L14.5163 11.7828C14.4202 11.6899 14.3521 11.5718 14.3199 11.442C14.2876 11.3122 14.2925 11.176 14.334 11.0488C14.3755 10.9217 14.4519 10.8088 14.5545 10.723C14.6571 10.6372 14.7817 10.582 14.9141 10.5637L19.3655 9.91833L21.3565 5.89783C21.416 5.77808 21.5078 5.67733 21.6215 5.60689C21.7352 5.53646 21.8662 5.49915 22 5.49915C22.1337 5.49915 22.2648 5.53646 22.3785 5.60689C22.4922 5.67733 22.5839 5.77808 22.6435 5.89783L24.6345 9.91833L29.0858 10.5637C29.2179 10.5827 29.342 10.6382 29.4441 10.7241C29.5463 10.81 29.6223 10.9227 29.6637 11.0496C29.7051 11.1764 29.7102 11.3123 29.6784 11.4419C29.6465 11.5715 29.5791 11.6896 29.4836 11.7828L26.2625 14.9123L27.0215 19.3307C27.0443 19.4624 27.0296 19.5979 26.9793 19.7218C26.9289 19.8456 26.8448 19.9529 26.7366 20.0314C26.6283 20.1099 26.5002 20.1564 26.3668 20.1657C26.2334 20.1751 26.1001 20.1468 25.982 20.0842L22 17.9978V17.9978Z" stroke="#EC6C10" stroke-width="2.75" stroke-linecap="round" stroke-linejoin="round"/>
</g>
<defs>
<clipPath id="clip0_256_2031">
<rect width="44" height="44" fill="white"/>
</clipPath>
</defs>
</svg>
