<svg width="257" height="226" viewBox="0 0 257 226" fill="none" xmlns="http://www.w3.org/2000/svg">
<g clip-path="url(#clip0_207_852)">
<path d="M254.952 222.768C254.503 223.396 254.05 224.02 253.601 224.638C252.31 225.528 250.779 226.003 249.212 226H7.78786C6.29057 226.001 4.82503 225.568 3.56867 224.753C3.15171 224.203 2.73946 223.648 2.32251 223.094L2.73946 222.864L124.959 155.074C126.043 154.473 127.262 154.158 128.501 154.156C129.74 154.155 130.96 154.467 132.046 155.064L254.54 222.539L254.952 222.768Z" fill="#EF8538"/>
<path d="M249.212 80.2232L143.289 19.0105C138.833 16.4359 133.78 15.0792 128.635 15.0767C123.491 15.0741 118.436 16.4258 113.978 18.996L7.78788 80.2232C5.7233 80.2261 3.74413 81.0481 2.28425 82.5089C0.824369 83.9698 0.00292064 85.9503 0 88.0163V218.207C0.00240546 220.273 0.823685 222.254 2.28367 223.715C3.74366 225.176 5.72314 225.998 7.78788 226H249.212C251.277 225.997 253.255 225.174 254.715 223.714C256.175 222.253 256.997 220.273 257 218.207V88.0163C256.997 85.9503 256.176 83.9698 254.716 82.5089C253.256 81.0481 251.277 80.2261 249.212 80.2232ZM256.084 218.207C256.079 220.029 255.354 221.776 254.066 223.064C252.779 224.353 251.033 225.079 249.212 225.083H7.78788C5.96641 225.08 4.22048 224.354 2.93251 223.066C1.64453 221.777 0.919498 220.03 0.916221 218.207V88.0163C0.918437 86.1932 1.64313 84.4455 2.93133 83.1565C4.21954 81.8674 5.96608 81.1422 7.78788 81.14L113.978 19.9128C118.436 17.3426 123.491 15.991 128.635 15.9935C133.78 15.996 138.833 17.3527 143.289 19.9273L249.212 81.14C251.034 81.1422 252.78 81.8674 254.069 83.1565C255.357 84.4455 256.082 86.1932 256.084 88.0163V218.207Z" fill="#3F3D56"/>
<path d="M128.637 153.882C127.839 153.885 127.047 153.751 126.294 153.488L126.155 153.439L126.127 153.131C126.041 153.174 125.954 153.214 125.866 153.253L125.774 153.293L125.682 153.253C125.489 153.168 125.297 153.072 125.112 152.967L40.7719 105.543V8.70998C40.7744 6.46152 41.6681 4.30588 43.2569 2.71598C44.8457 1.12609 46.9999 0.231772 49.2469 0.229248H207.753C210 0.231772 212.154 1.12609 213.743 2.71598C215.332 4.30588 216.226 6.46152 216.228 8.70998V105.666L216.111 105.732L132.163 152.968C131.085 153.569 129.871 153.884 128.637 153.882Z" fill="white"/>
<path d="M128.637 154.111C127.814 154.114 126.995 153.976 126.218 153.705L125.94 153.607L125.928 153.476L125.774 153.544L125.59 153.463C125.39 153.375 125.191 153.275 125 153.167L40.5427 105.677V8.70994C40.5453 6.40072 41.4632 4.18684 43.095 2.55397C44.7267 0.921107 46.9392 0.00261348 49.2468 0H207.753C210.061 0.00262317 212.273 0.921116 213.905 2.55398C215.537 4.18684 216.455 6.40072 216.457 8.70994V105.801L132.275 153.167C131.163 153.788 129.91 154.113 128.637 154.111ZM126.799 152.93C128.483 153.414 130.29 153.212 131.826 152.368L215.541 105.264V8.70994C215.539 6.64379 214.717 4.66294 213.257 3.20195C211.797 1.74096 209.818 0.919162 207.753 0.916836H49.2468C47.1821 0.919152 45.2025 1.74096 43.7425 3.20194C42.2825 4.66293 41.4613 6.64379 41.4589 8.70994V105.14L46.9515 108.227L125.449 152.368C125.556 152.428 125.664 152.485 125.774 152.538C125.884 152.485 125.993 152.428 126.099 152.368L126.716 152.021L126.799 152.93Z" fill="#3F3D56"/>
<path d="M254.97 83.6062L221.725 102.31L215.999 105.532L132.05 152.768C131.007 153.35 129.832 153.655 128.637 153.652C127.865 153.655 127.099 153.526 126.37 153.272C126.167 153.207 125.968 153.131 125.774 153.043C125.586 152.96 125.403 152.869 125.225 152.768L46.7272 108.627L41.0009 105.409L2.09816 83.5329C1.99237 83.4722 1.91478 83.3722 1.8822 83.2546C1.84962 83.137 1.86468 83.0114 1.92413 82.9048C1.98373 82.7991 2.08282 82.7214 2.19961 82.6888C2.31641 82.6561 2.44137 82.6712 2.54709 82.7306L41.0009 104.354L46.7272 107.572L125.673 151.965C125.935 152.113 126.208 152.24 126.489 152.346C126.608 152.392 126.732 152.433 126.855 152.47C127.64 152.711 128.464 152.79 129.28 152.703C130.096 152.617 130.885 152.366 131.601 151.965L215.999 104.483L221.725 101.26L254.522 82.8086C254.574 82.7791 254.632 82.7602 254.691 82.7529C254.751 82.7457 254.811 82.7504 254.869 82.7665C254.927 82.7827 254.981 82.8101 255.028 82.8472C255.076 82.8843 255.115 82.9304 255.145 82.9827C255.174 83.0351 255.193 83.0928 255.2 83.1525C255.207 83.2121 255.203 83.2727 255.187 83.3305C255.17 83.3884 255.143 83.4426 255.106 83.4899C255.069 83.5372 255.023 83.5767 254.97 83.6062Z" fill="#3F3D56"/>
<path d="M75.1643 30.2556H62.3372C61.3653 30.2556 60.4331 29.8692 59.7458 29.1814C59.0585 28.4937 58.6724 27.5609 58.6724 26.5882C58.6724 25.6156 59.0585 24.6828 59.7458 23.995C60.4331 23.3073 61.3653 22.9209 62.3372 22.9209H75.1643C76.1363 22.9209 77.0685 23.3073 77.7558 23.995C78.4431 24.6828 78.8292 25.6156 78.8292 26.5882C78.8292 27.5609 78.4431 28.4937 77.7558 29.1814C77.0685 29.8692 76.1363 30.2556 75.1643 30.2556Z" fill="#EF8538"/>
<path d="M90.282 42.6329H62.3372C61.3653 42.6329 60.4331 42.2465 59.7458 41.5588C59.0585 40.871 58.6724 39.9382 58.6724 38.9656C58.6724 37.9929 59.0585 37.0601 59.7458 36.3724C60.4331 35.6846 61.3653 35.2982 62.3372 35.2982H90.282C91.254 35.2982 92.1861 35.6846 92.8734 36.3724C93.5607 37.0601 93.9469 37.9929 93.9469 38.9656C93.9469 39.9382 93.5607 40.871 92.8734 41.5588C92.1861 42.2465 91.254 42.6329 90.282 42.6329Z" fill="#E6E6E6"/>
<path d="M168.356 75.6389H89.1025C88.1305 75.6389 87.1983 75.2525 86.511 74.5647C85.8237 73.877 85.4376 72.9442 85.4376 71.9715C85.4376 70.9989 85.8237 70.0661 86.511 69.3783C87.1983 68.6906 88.1305 68.3042 89.1025 68.3042H168.356C169.328 68.3042 170.26 68.6906 170.947 69.3783C171.634 70.0661 172.021 70.9989 172.021 71.9715C172.021 72.9442 171.634 73.877 170.947 74.5647C170.26 75.2525 169.328 75.6389 168.356 75.6389Z" fill="#EF8538"/>
<path d="M175.685 89.8499H81.3147C80.3427 89.8499 79.4105 89.4636 78.7232 88.7758C78.0359 88.088 77.6498 87.1552 77.6498 86.1826C77.6498 85.21 78.0359 84.2772 78.7232 83.5894C79.4105 82.9016 80.3427 82.5153 81.3147 82.5153H175.685C176.657 82.5153 177.59 82.9016 178.277 83.5894C178.964 84.2772 179.35 85.21 179.35 86.1826C179.35 87.1552 178.964 88.088 178.277 88.7758C177.59 89.4636 176.657 89.8499 175.685 89.8499Z" fill="#E6E6E6"/>
<path d="M175.685 103.602H81.3147C80.3427 103.602 79.4105 103.216 78.7232 102.528C78.0359 101.84 77.6498 100.908 77.6498 99.935C77.6498 98.9624 78.0359 98.0296 78.7232 97.3418C79.4105 96.6541 80.3427 96.2677 81.3147 96.2677H175.685C176.657 96.2677 177.59 96.6541 178.277 97.3418C178.964 98.0296 179.35 98.9624 179.35 99.935C179.35 100.908 178.964 101.84 178.277 102.528C177.59 103.216 176.657 103.602 175.685 103.602Z" fill="#E6E6E6"/>
</g>
<defs>
<clipPath id="clip0_207_852">
<rect width="257" height="226" fill="white"/>
</clipPath>
</defs>
</svg>
