<svg width="257" height="226" viewBox="0 0 257 226" fill="none" xmlns="http://www.w3.org/2000/svg">
<g clip-path="url(#clip0_207_852)">
<path d="M254.953 222.768C254.503 223.396 254.05 224.02 253.601 224.639C252.31 225.528 250.78 226.003 249.212 226H7.78811C6.29082 226.001 4.82527 225.568 3.56891 224.753C3.15196 224.203 2.73971 223.648 2.32275 223.094L2.73971 222.864L124.959 155.074C126.043 154.473 127.262 154.158 128.501 154.156C129.741 154.155 130.96 154.467 132.046 155.064L254.54 222.539L254.953 222.768Z" fill="#EF8538"/>
<path d="M249.212 80.2231L143.289 19.0104C138.833 16.4358 133.78 15.0792 128.635 15.0766C123.491 15.0741 118.436 16.4258 113.978 18.996L7.78788 80.2231C5.7233 80.226 3.74413 81.048 2.28425 82.5089C0.824369 83.9698 0.00292064 85.9503 0 88.0162V218.207C0.00240546 220.273 0.823685 222.254 2.28367 223.715C3.74366 225.176 5.72314 225.998 7.78788 226H249.212C251.277 225.996 253.255 225.174 254.715 223.714C256.175 222.253 256.997 220.273 257 218.207V88.0162C256.997 85.9503 256.176 83.9697 254.716 82.5089C253.256 81.048 251.277 80.226 249.212 80.2231ZM256.084 218.207C256.079 220.029 255.354 221.776 254.066 223.064C252.779 224.353 251.033 225.079 249.212 225.083H7.78788C5.96641 225.08 4.22048 224.354 2.93251 223.066C1.64453 221.777 0.919498 220.03 0.916221 218.207V88.0162C0.918437 86.1932 1.64313 84.4455 2.93133 83.1564C4.21954 81.8673 5.96608 81.1422 7.78788 81.14L113.978 19.9128C118.436 17.3426 123.491 15.9909 128.635 15.9935C133.78 15.996 138.833 17.3527 143.289 19.9273L249.212 81.14C251.034 81.1422 252.78 81.8673 254.069 83.1564C255.357 84.4455 256.082 86.1932 256.084 88.0162V218.207Z" fill="#3F3D56"/>
<path d="M128.637 153.882C127.84 153.884 127.047 153.751 126.294 153.488L126.155 153.439L126.127 153.131C126.041 153.174 125.954 153.214 125.866 153.253L125.774 153.293L125.682 153.253C125.489 153.168 125.297 153.072 125.112 152.967L40.772 105.543V8.70994C40.7745 6.46149 41.6682 4.30585 43.257 2.71595C44.8459 1.12605 47.0001 0.231734 49.247 0.22921H207.753C210 0.231734 212.154 1.12605 213.743 2.71595C215.332 4.30585 216.226 6.46149 216.228 8.70994V105.666L216.112 105.732L132.163 152.968C131.085 153.569 129.871 153.884 128.637 153.882Z" fill="white"/>
<path d="M128.638 154.111C127.814 154.114 126.996 153.976 126.218 153.705L125.94 153.607L125.929 153.476L125.774 153.544L125.59 153.463C125.39 153.375 125.192 153.275 125 153.167L40.543 105.677V8.70994C40.5456 6.40072 41.4635 4.18684 43.0952 2.55397C44.727 0.921107 46.9394 0.00261348 49.2471 0H207.753C210.061 0.00262317 212.273 0.921116 213.905 2.55398C215.537 4.18684 216.455 6.40072 216.457 8.70994V105.801L132.275 153.167C131.163 153.788 129.911 154.113 128.638 154.111ZM126.799 152.93C128.483 153.414 130.29 153.212 131.826 152.368L215.541 105.264V8.70994C215.539 6.64379 214.718 4.66294 213.258 3.20195C211.798 1.74096 209.818 0.919162 207.753 0.916836H49.2471C47.1823 0.919152 45.2028 1.74096 43.7428 3.20194C42.2828 4.66293 41.4615 6.64379 41.4592 8.70994V105.14L46.9518 108.227L125.449 152.368C125.556 152.428 125.664 152.485 125.774 152.538C125.885 152.485 125.993 152.428 126.099 152.368L126.716 152.021L126.799 152.93Z" fill="#3F3D56"/>
<path d="M254.97 83.6063L221.725 102.31L215.999 105.532L132.05 152.768C131.007 153.35 129.832 153.655 128.637 153.652C127.865 153.655 127.099 153.526 126.37 153.272C126.167 153.207 125.968 153.131 125.774 153.043C125.586 152.96 125.403 152.869 125.224 152.768L46.7271 108.627L41.0007 105.409L2.09803 83.5329C1.99225 83.4722 1.91466 83.3722 1.88208 83.2547C1.8495 83.1371 1.86456 83.0114 1.924 82.9049C1.98361 82.7992 2.08269 82.7215 2.19949 82.6888C2.31628 82.6562 2.44125 82.6712 2.54697 82.7307L41.0007 104.354L46.7271 107.572L125.673 151.966C125.935 152.113 126.208 152.24 126.489 152.346C126.608 152.392 126.732 152.433 126.855 152.47C127.639 152.711 128.464 152.79 129.28 152.703C130.095 152.617 130.885 152.366 131.601 151.966L215.999 104.483L221.725 101.26L254.521 82.8086C254.574 82.7791 254.631 82.7602 254.691 82.753C254.751 82.7458 254.811 82.7504 254.869 82.7666C254.927 82.7828 254.981 82.8102 255.028 82.8473C255.075 82.8844 255.115 82.9304 255.144 82.9828C255.174 83.0352 255.193 83.0929 255.2 83.1525C255.207 83.2122 255.203 83.2727 255.186 83.3306C255.17 83.3885 255.143 83.4426 255.106 83.4899C255.069 83.5372 255.023 83.5768 254.97 83.6063Z" fill="#3F3D56"/>
<path d="M75.1643 30.2556H62.3372C61.3653 30.2556 60.4331 29.8692 59.7458 29.1814C59.0585 28.4937 58.6724 27.5609 58.6724 26.5882C58.6724 25.6156 59.0585 24.6828 59.7458 23.995C60.4331 23.3073 61.3653 22.9209 62.3372 22.9209H75.1643C76.1363 22.9209 77.0685 23.3073 77.7558 23.995C78.4431 24.6828 78.8292 25.6156 78.8292 26.5882C78.8292 27.5609 78.4431 28.4937 77.7558 29.1814C77.0685 29.8692 76.1363 30.2556 75.1643 30.2556Z" fill="#EF8538"/>
<path d="M90.282 42.6329H62.3372C61.3653 42.6329 60.4331 42.2465 59.7458 41.5587C59.0585 40.871 58.6724 39.9382 58.6724 38.9655C58.6724 37.9929 59.0585 37.0601 59.7458 36.3723C60.4331 35.6845 61.3653 35.2982 62.3372 35.2982H90.282C91.254 35.2982 92.1861 35.6845 92.8734 36.3723C93.5607 37.0601 93.9469 37.9929 93.9469 38.9655C93.9469 39.9382 93.5607 40.871 92.8734 41.5587C92.1861 42.2465 91.254 42.6329 90.282 42.6329Z" fill="#E6E6E6"/>
<path d="M168.355 75.6389H89.1024C88.1304 75.6389 87.1982 75.2526 86.5109 74.5648C85.8236 73.877 85.4375 72.9442 85.4375 71.9716C85.4375 70.999 85.8236 70.0662 86.5109 69.3784C87.1982 68.6906 88.1304 68.3043 89.1024 68.3043H168.355C169.327 68.3043 170.26 68.6906 170.947 69.3784C171.634 70.0662 172.02 70.999 172.02 71.9716C172.02 72.9442 171.634 73.877 170.947 74.5648C170.26 75.2526 169.327 75.6389 168.355 75.6389Z" fill="#EF8538"/>
<path d="M175.686 89.8499H81.3148C80.3428 89.8499 79.4106 89.4635 78.7233 88.7758C78.036 88.088 77.6499 87.1552 77.6499 86.1826C77.6499 85.2099 78.036 84.2771 78.7233 83.5894C79.4106 82.9016 80.3428 82.5152 81.3148 82.5152H175.686C176.658 82.5152 177.59 82.9016 178.277 83.5894C178.964 84.2771 179.35 85.2099 179.35 86.1826C179.35 87.1552 178.964 88.088 178.277 88.7758C177.59 89.4635 176.658 89.8499 175.686 89.8499Z" fill="#E6E6E6"/>
<path d="M175.686 103.602H81.3148C80.3428 103.602 79.4106 103.216 78.7233 102.528C78.036 101.841 77.6499 100.908 77.6499 99.9351C77.6499 98.9624 78.036 98.0296 78.7233 97.3419C79.4106 96.6541 80.3428 96.2677 81.3148 96.2677H175.686C176.658 96.2677 177.59 96.6541 178.277 97.3419C178.964 98.0296 179.35 98.9624 179.35 99.9351C179.35 100.908 178.964 101.841 178.277 102.528C177.59 103.216 176.658 103.602 175.686 103.602Z" fill="#E6E6E6"/>
</g>
<defs>
<clipPath id="clip0_207_852">
<rect width="257" height="226" fill="white"/>
</clipPath>
</defs>
</svg>
